<?xml version="1.0" encoding="utf-8"?>
<!-- Generator: Adobe Illustrator 24.0.1, SVG Export Plug-In . SVG Version: 6.00 Build 0)  -->
<svg version="1.1" id="Layer_1" xmlns="http://www.w3.org/2000/svg" xmlns:xlink="http://www.w3.org/1999/xlink" x="0px" y="0px"
	 viewBox="0 0 24 24" enable-background="new 0 0 24 24" xml:space="preserve">
<g id="zkoeON_1_" fill="currentColor">
	<g>
		<path d="M14.19,15.99c1.27,0,2.54,0,3.81,0c0.17,0,0.34-0.04,0.5-0.04c0.43-0.01,0.76,0.42,0.67,0.83
			c-0.03,0.11-0.15,0.23-0.26,0.29c-0.21,0.11-0.45,0.15-0.69,0.06c-0.04-0.02-0.09,0-0.14,0c-0.45,0-0.9,0-1.35,0
			c-2.25,0-4.5,0-6.75,0.01c-0.23,0-0.47,0-0.69-0.06c-0.35-0.09-0.58-0.34-0.71-0.66c-0.21-0.57-0.4-1.14-0.59-1.72
			c-0.13-0.41-0.22-0.84-0.34-1.25c-0.15-0.53-0.31-1.05-0.47-1.57c-0.11-0.35-0.24-0.69-0.34-1.04c-0.1-0.34-0.18-0.68-0.28-1.02
			C6.38,9.22,6.18,8.65,6.01,8.07C5.9,7.7,5.84,7.32,5.73,6.95C5.63,6.62,5.48,6.3,5.38,5.97C5.25,5.54,5.12,5.1,5.04,4.66
			c-0.06-0.33-0.4-0.58-0.66-0.59c-0.55-0.02-1.1-0.03-1.65,0C2.45,4.1,2.18,4.09,1.92,4c-0.18-0.06-0.3-0.18-0.33-0.36
			C1.56,3.42,1.64,3.21,1.83,3.13c0.3-0.14,0.59-0.28,0.96-0.2c0.28,0.05,0.57,0.02,0.86,0.01C3.96,2.93,4.28,2.89,4.6,2.9
			c0.18,0,0.36,0.06,0.53,0.12c0.36,0.14,0.66,0.37,0.8,0.75C6.01,4,6.04,4.24,6.11,4.47C6.19,4.74,6.28,5,6.37,5.26
			c0.07,0.21,0.14,0.42,0.24,0.62C6.7,6.07,6.88,6.17,7.1,6.17c2.69,0,5.39,0,8.08,0c1.69,0,3.38,0,5.08,0
			c0.28,0,0.56-0.03,0.84-0.04c0.31-0.02,0.51,0.13,0.49,0.47c-0.02,0.3-0.13,0.55-0.25,0.81c-0.13,0.27-0.22,0.55-0.32,0.83
			c-0.14,0.38-0.25,0.77-0.41,1.14c-0.19,0.41-0.31,0.84-0.43,1.28c-0.04,0.17-0.15,0.32-0.21,0.48c-0.14,0.41-0.25,0.82-0.4,1.22
			c-0.09,0.26-0.23,0.5-0.35,0.74c-0.04,0.08-0.06,0.16-0.09,0.24c-0.15,0.47-0.45,0.68-0.94,0.59c-0.06-0.01-0.12-0.03-0.19-0.03
			c-1.85,0-3.69,0-5.54,0c-0.74,0-1.48,0-2.21,0c-0.14,0-0.29-0.05-0.43-0.04c-0.21,0.03-0.42,0.07-0.61,0.17
			c-0.15,0.07-0.15,0.26-0.11,0.41c0.06,0.28,0.14,0.56,0.21,0.84c0.07,0.29,0.25,0.5,0.52,0.6c0.2,0.07,0.41,0.11,0.62,0.11
			C11.7,15.99,12.95,15.99,14.19,15.99z M13.15,10.98c-0.02,0-0.03,0-0.04,0c0,0.08-0.01,0.17,0,0.25c0.09,0.46,0.09,0.62,0.48,0.68
			c0.09,0.01,0.18-0.01,0.27-0.02c0.23-0.02,0.41-0.2,0.43-0.43c0.01-0.16,0-0.32,0-0.48c0-0.7,0-1.39,0-2.09
			c0-0.05-0.01-0.1,0-0.14c0.11-0.32,0-0.56-0.23-0.77c-0.2-0.18-0.66-0.14-0.8,0.09c-0.12,0.21-0.18,0.44-0.15,0.68
			c0.01,0.12,0.04,0.24,0.04,0.36C13.16,9.72,13.15,10.35,13.15,10.98z M11.15,11.34L11.15,11.34c0-0.1,0.02-0.2-0.01-0.3
			c-0.11-0.45-0.21-0.9-0.36-1.34c-0.14-0.41-0.16-0.82-0.19-1.24c-0.03-0.43-0.33-0.69-0.74-0.61c-0.3,0.05-0.48,0.42-0.38,0.7
			c0.1,0.3,0.18,0.61,0.24,0.93c0.05,0.25,0.06,0.52,0.09,0.77c0.04,0.3,0.09,0.6,0.12,0.9c0.05,0.48,0.32,0.75,0.78,0.76
			c0.28,0,0.44-0.17,0.44-0.45C11.15,11.44,11.15,11.39,11.15,11.34z M17.97,8.42c-0.02-0.08-0.03-0.18-0.06-0.28
			c-0.07-0.27-0.45-0.41-0.69-0.27c-0.18,0.11-0.21,0.29-0.26,0.45c-0.06,0.2-0.05,0.42-0.1,0.63c-0.09,0.38-0.21,0.76-0.32,1.14
			c-0.14,0.45-0.2,0.91-0.2,1.38c0,0.21,0.09,0.41,0.36,0.48c0.16,0.04,0.41-0.08,0.54-0.23c0.15-0.18,0.18-0.39,0.23-0.6
			c0.08-0.36,0.16-0.73,0.23-1.09c0.05-0.26,0.09-0.52,0.13-0.78C17.87,8.99,17.92,8.72,17.97,8.42z"/>
		<path d="M10.49,18.43c0.69-0.04,1.41,0.78,1.39,1.38c-0.02,0.89-0.64,1.5-1.46,1.48c-0.82-0.02-1.38-0.57-1.42-1.44
			C8.98,19.17,9.69,18.4,10.49,18.43z"/>
		<path d="M19.05,19.86c0.02,0.87-0.73,1.45-1.45,1.44c-0.66-0.01-1.45-0.56-1.38-1.54c0.04-0.63,0.61-1.35,1.49-1.35
			C18.3,18.43,19.14,19.26,19.05,19.86z"/>
	</g>
</g>
</svg>
